<?xml version="1.0" standalone="no"?>
<!DOCTYPE svg PUBLIC "-//W3C//DTD SVG 20010904//EN"
 "http://www.w3.org/TR/2001/REC-SVG-20010904/DTD/svg10.dtd">
<svg version="1.0" xmlns="http://www.w3.org/2000/svg"
 width="300.000000pt" height="383.000000pt" viewBox="0 0 300.000000 383.000000"
 preserveAspectRatio="xMidYMid meet">

<g transform="translate(0.000000,383.000000) scale(0.100000,-0.100000)"
fill="#000000" stroke="none">
<path d="M1492 3775 c-17 -37 -14 -45 4 -12 9 16 14 31 11 33 -2 2 -9 -7 -15
-21z"/>
<path d="M1541 3780 c14 -31 19 -36 19 -24 0 6 -7 19 -16 30 -14 18 -14 18 -3
-6z"/>
<path d="M1517 3691 c-3 -14 0 -21 9 -21 16 0 18 9 5 28 -6 10 -10 9 -14 -7z"/>
<path d="M1456 3684 c-8 -22 -8 -54 2 -54 4 0 8 16 9 35 2 38 -1 44 -11 19z"/>
<path d="M1502 3640 c-15 -24 -16 -44 -2 -35 5 3 7 0 5 -8 -3 -7 1 -29 10 -48
15 -33 15 -33 9 36 -4 39 -7 71 -8 72 -1 1 -7 -7 -14 -17z"/>
<path d="M1550 3631 c0 -6 5 -13 10 -16 6 -3 10 1 10 9 0 9 -4 16 -10 16 -5 0
-10 -4 -10 -9z"/>
<path d="M1315 3587 c-21 -13 -36 -29 -31 -35 8 -7 56 22 56 35 0 15 1 15 -25
0z"/>
<path d="M1381 3562 c16 -26 -2 -78 -26 -75 -16 1 -16 0 -2 -15 20 -20 38 -6
56 43 11 33 11 38 -6 50 -25 20 -35 18 -22 -3z"/>
<path d="M1632 3560 c-13 -22 -3 -27 16 -8 9 9 12 7 12 -9 0 -12 5 -25 10 -28
13 -8 13 8 -2 40 -14 30 -19 31 -36 5z"/>
<path d="M1697 3561 c-3 -12 -1 -21 3 -21 14 0 19 15 11 29 -6 9 -10 7 -14 -8z"/>
<path d="M1586 3548 c-13 -41 -14 -59 -3 -55 7 2 12 18 13 35 1 33 -4 42 -10
20z"/>
<path d="M1666 3497 c-11 -8 -16 -21 -13 -33 4 -17 5 -16 6 4 1 15 7 22 20 22
11 0 23 5 26 10 9 14 -18 12 -39 -3z"/>
<path d="M1317 3493 c-9 -9 -9 -55 1 -70 4 -7 7 8 7 33 0 24 0 44 -1 44 0 0
-4 -3 -7 -7z"/>
<path d="M1709 3463 c-10 -2 -19 -13 -22 -23 -4 -16 -2 -18 13 -10 30 16 56
-1 51 -32 0 -5 4 -8 9 -8 6 0 10 -4 10 -10 0 -5 -7 -10 -15 -10 -8 0 -15 -7
-15 -16 0 -8 5 -12 11 -9 19 12 56 -4 64 -27 15 -47 14 -50 -6 -32 -17 16 -19
16 -19 1 0 -25 -21 -21 -68 14 -31 23 -40 35 -33 46 10 19 -10 65 -26 58 -7
-2 -21 7 -31 19 -16 22 -23 23 -63 15 -65 -12 -72 -11 -64 9 4 10 -7 5 -27
-14 -37 -36 -87 -51 -117 -35 -17 10 -20 7 -26 -18 -3 -16 -13 -35 -21 -42
-30 -25 -16 -36 34 -27 26 5 65 8 87 8 41 0 95 -17 95 -29 0 -4 14 -21 30 -38
28 -28 29 -31 10 -36 -21 -5 -50 18 -29 25 6 2 -1 9 -17 16 -26 12 -27 12 -13
-5 7 -10 1 -7 -14 6 -21 19 -29 22 -41 12 -9 -8 -24 -10 -38 -5 -20 6 -21 5
-9 -10 12 -14 12 -16 -4 -10 -11 5 -22 1 -30 -10 -12 -15 -15 -15 -41 6 -49
39 -69 47 -88 36 -10 -5 -15 -16 -12 -26 3 -10 8 -32 10 -50 3 -29 1 -32 -23
-33 -38 -2 -56 2 -59 12 -6 17 -32 9 -32 -9 0 -27 -87 -72 -139 -72 -29 0 -66
13 -128 45 -47 25 -91 45 -97 45 -6 -1 6 -10 26 -21 25 -13 35 -24 32 -34 -4
-8 -1 -15 5 -15 6 0 11 -5 11 -10 0 -6 -14 -3 -31 6 l-32 16 22 -30 c23 -33
19 -41 -28 -48 -21 -4 -38 4 -72 33 -68 59 -89 72 -60 40 14 -15 26 -34 27
-43 2 -14 0 -14 -21 0 -14 9 -29 16 -36 16 -6 0 -23 8 -37 19 -15 10 -38 21
-52 25 -24 6 -24 6 -3 -5 44 -23 36 -39 -20 -39 -34 0 -47 -3 -38 -9 8 -5 20
-7 27 -4 19 7 86 -32 124 -73 33 -35 33 -37 7 -20 -16 10 -31 15 -34 12 -3 -3
8 -13 26 -23 29 -17 41 -33 24 -33 -4 0 -30 15 -58 34 l-50 35 -62 -13 c-35
-8 -74 -21 -87 -30 -16 -10 -46 -16 -81 -16 -31 0 -65 -4 -75 -10 -43 -23 -81
-122 -142 -365 -11 -44 -29 -105 -40 -135 -27 -75 -27 -84 0 -88 27 -4 28 -21
1 -74 -23 -46 -19 -53 38 -64 31 -6 31 -6 26 -58 l-5 -52 41 4 c46 5 49 1 22
-36 -17 -25 -61 -107 -61 -115 0 -2 27 0 59 4 63 7 112 34 132 71 11 21 12 21
25 3 7 -9 18 -43 25 -73 10 -51 12 -54 25 -37 8 10 14 25 14 32 0 7 4 13 9 13
5 0 15 -33 21 -72 16 -99 16 -98 35 -51 l18 42 44 -55 c24 -30 45 -54 47 -54
1 0 18 14 36 30 18 17 37 30 41 30 3 0 19 -16 34 -36 l28 -36 -17 -75 c-19
-86 -40 -133 -61 -133 -17 0 -20 16 -5 25 33 20 -18 108 -82 141 -32 17 -103
18 -146 3 -33 -11 -62 -59 -62 -103 0 -29 24 -36 34 -11 3 9 24 24 47 34 55
25 94 13 117 -38 9 -20 21 -39 26 -42 5 -4 7 -20 4 -37 -3 -24 -1 -29 11 -25
11 4 9 -2 -6 -18 -18 -18 -36 -24 -89 -27 l-67 -5 24 -18 c23 -17 23 -18 4
-26 -16 -6 -10 -9 25 -13 37 -4 46 -9 48 -28 2 -13 -8 -37 -26 -60 -46 -58
-61 -95 -80 -192 l-18 -90 20 6 c12 3 36 15 54 25 18 10 34 19 35 19 1 0 -1
-51 -4 -112 -4 -62 -5 -115 -4 -117 2 -2 15 8 29 22 l25 25 26 -44 26 -45 -22
-37 c-12 -20 -43 -66 -67 -101 l-46 -65 45 -39 c41 -36 98 -73 103 -65 1 2 23
33 49 70 26 37 47 71 47 76 0 5 11 17 24 26 24 15 25 15 19 -7 -18 -75 -16
-86 21 -119 20 -18 55 -43 79 -55 l42 -22 42 82 c23 45 42 85 42 90 1 4 -11 4
-25 1 -24 -6 -25 -5 -13 13 16 26 7 47 -27 70 -23 15 -46 19 -130 22 -16 1
-32 71 -39 168 -4 46 -10 96 -15 113 -8 26 -7 29 8 21 10 -5 26 -19 36 -30 13
-15 22 -18 27 -10 4 7 19 -13 38 -48 72 -136 244 -331 405 -462 42 -34 81 -59
87 -55 6 3 -12 22 -40 40 -28 19 -51 38 -51 43 0 4 -12 14 -27 22 -87 44 -334
341 -385 461 -24 59 -52 169 -65 263 -3 22 -9 60 -14 85 -7 38 -7 34 -3 -22 2
-38 2 -68 -1 -68 -10 0 -59 107 -71 157 -13 56 -5 106 29 183 l15 35 2 -45 c1
-25 5 -54 10 -65 5 -12 6 10 3 56 -3 47 -2 79 5 83 18 11 30 -18 35 -91 4 -62
3 -73 -11 -73 -14 0 -14 -1 0 -12 20 -16 32 -66 19 -81 -6 -8 -4 -17 5 -25 12
-11 14 -5 15 40 1 29 1 57 0 62 -1 6 -5 23 -8 39 -5 26 -3 28 18 25 19 -2 25
-10 27 -35 3 -32 22 -47 22 -18 0 18 11 19 45 3 21 -9 32 -8 61 5 44 21 44 21
44 -3 0 -16 7 -20 31 -20 24 0 30 -3 25 -16 -5 -13 0 -15 35 -9 37 6 41 5 35
-10 -5 -15 -2 -16 21 -10 16 3 37 14 48 23 11 9 30 23 43 30 19 11 22 10 22
-6 0 -10 -6 -24 -13 -31 -17 -18 100 -4 129 16 12 7 28 11 37 7 12 -4 14 -1
10 16 -3 11 1 38 10 58 9 20 18 54 21 75 3 21 12 51 20 67 13 28 13 30 -3 30
-22 0 -56 -36 -70 -73 -6 -16 -11 -54 -11 -85 0 -52 -1 -55 -17 -40 -14 15
-20 15 -42 3 -38 -19 -62 -21 -97 -7 -26 11 -37 11 -67 -1 -33 -14 -34 -14
-29 5 4 17 1 19 -31 13 -30 -6 -37 -4 -47 15 -10 18 -18 21 -43 16 -17 -3 -38
-13 -47 -21 -26 -23 -62 -18 -97 14 -23 21 -30 35 -26 50 5 20 -2 25 -43 24
-6 0 -11 5 -11 11 0 6 -3 22 -7 36 -8 31 0 42 38 55 22 8 30 17 30 37 2 33 14
47 45 50 28 3 71 -50 71 -88 0 -31 14 -37 55 -24 25 8 44 8 72 0 21 -6 57 -13
81 -16 40 -5 42 -4 42 21 0 21 -3 24 -16 17 -9 -5 -25 -7 -36 -4 -17 4 -18 6
-3 28 22 33 6 59 -53 87 -40 20 -47 27 -45 50 1 21 -3 27 -18 27 -11 0 -33 10
-49 22 l-30 21 30 19 c35 21 37 29 10 53 -19 17 -79 23 -100 10 -5 -3 -16 5
-24 18 -21 31 -3 71 42 92 28 14 32 21 32 54 0 47 20 67 49 52 11 -6 24 -19
29 -28 9 -15 11 -15 26 -1 9 9 13 24 10 32 -8 20 9 21 25 2 21 -26 24 -81 6
-115 -19 -37 -14 -51 11 -30 14 11 15 10 12 -7 -2 -11 2 -18 9 -17 8 2 11 -8
10 -27 -1 -17 -5 -30 -9 -30 -17 0 15 -58 38 -68 13 -7 29 -23 36 -37 13 -29
27 -31 68 -10 16 8 63 17 105 19 62 3 82 8 115 31 21 15 41 32 43 40 3 7 30
16 61 19 54 7 55 8 52 37 -2 16 -9 35 -16 43 -6 9 -9 20 -5 25 3 6 -2 22 -11
36 -9 14 -12 25 -8 26 5 0 -1 4 -13 9 -15 6 -23 18 -23 34 0 34 -15 41 -40 16
-15 -15 -20 -17 -20 -5 0 8 -3 15 -6 15 -16 0 -123 -66 -120 -75 5 -15 52 -7
89 15 l34 20 21 -23 c20 -22 21 -28 13 -96 -5 -40 -11 -73 -13 -74 -2 -1 -16
-11 -33 -23 -16 -11 -47 -23 -68 -27 -30 -5 -41 -2 -57 16 -24 25 -14 38 26
40 33 2 44 13 44 45 0 31 -42 29 -86 -4 -27 -21 -34 -23 -34 -11 0 9 -9 21
-19 27 -26 14 -63 74 -55 93 3 8 18 17 34 20 17 4 35 18 45 35 9 15 33 39 53
52 45 31 67 52 75 73 10 26 46 21 59 -8 6 -14 16 -25 23 -25 17 0 35 22 35 42
0 19 20 24 36 9 8 -8 99 -17 359 -35 118 -8 221 -38 228 -66 3 -10 5 -76 6
-147 1 -117 0 -125 -13 -97 -12 27 -62 64 -86 64 -4 0 8 -17 26 -37 30 -32 34
-44 34 -89 0 -49 -6 -73 -33 -131 -12 -27 -1 -108 18 -123 8 -7 15 -23 15 -36
0 -28 16 -40 24 -18 3 8 -3 41 -14 72 -24 67 -25 105 -6 121 8 7 18 25 21 41
4 16 11 27 18 24 9 -3 12 43 11 185 -1 103 -4 192 -7 197 -3 5 -28 18 -55 28
-28 11 -48 24 -45 30 4 5 -1 7 -11 3 -10 -4 -65 0 -123 8 -57 9 -163 17 -234
19 -119 2 -166 12 -146 32 3 3 56 5 116 5 71 -1 111 2 111 9 0 11 -14 13 -110
14 -36 1 -66 5 -67 9 -9 26 1 28 90 21 91 -6 153 -24 115 -32 -25 -5 -22 -21
5 -27 12 -3 45 -10 72 -16 50 -11 307 -39 313 -34 2 2 -21 8 -50 15 -29 7 -64
17 -78 23 l-25 10 25 7 c43 14 103 11 120 -5 15 -14 19 -14 31 1 7 9 12 31 12
49 l-1 32 47 -25 c25 -14 47 -26 49 -28 8 -6 -92 -89 -105 -86 -11 2 -12 -16
-9 -95 3 -65 1 -100 -7 -105 -7 -4 -5 -18 7 -47 19 -41 19 -142 1 -185 -6 -15
-5 -17 5 -11 10 6 12 0 5 -31 -4 -21 -9 -78 -10 -125 -6 -203 -16 -386 -21
-409 -3 -14 -7 -38 -10 -55 -6 -45 -12 -55 -30 -55 -12 0 -15 6 -10 23 12 41
24 292 16 337 -6 39 -8 41 -9 13 -1 -41 -12 -42 -31 -1 -21 45 -35 45 -50 -2
-13 -40 -30 -54 -30 -24 0 13 -2 14 -15 1 -8 -8 -32 -15 -55 -15 -31 -1 -44 4
-55 21 -27 41 -55 150 -57 216 -2 81 15 117 80 167 34 26 40 34 22 29 -54 -16
-111 -95 -127 -178 -3 -17 -10 -35 -15 -38 -6 -4 -3 -22 6 -44 9 -20 13 -41
10 -47 -3 -5 0 -15 6 -23 6 -8 9 -19 5 -24 -3 -6 3 -16 15 -23 11 -7 20 -18
20 -24 0 -15 29 -72 41 -79 5 -4 7 -10 4 -15 -3 -5 4 -12 16 -15 11 -4 18 -13
16 -20 -3 -7 5 -18 18 -25 14 -7 22 -17 19 -21 -2 -4 5 -17 17 -28 12 -11 18
-24 15 -30 -4 -5 3 -16 14 -24 13 -9 18 -20 14 -31 -3 -9 2 -28 11 -42 11 -17
13 -29 7 -33 -5 -3 -12 -17 -14 -31 -2 -14 -9 -24 -15 -23 -7 2 -10 -4 -7 -12
4 -8 1 -15 -5 -15 -11 0 -15 22 -12 70 3 45 -22 93 -114 217 l-90 123 -44 -4
c-39 -3 -48 1 -72 26 l-26 30 18 60 c11 33 22 64 25 69 3 5 8 31 11 57 2 26
16 70 30 97 33 65 39 150 12 173 -26 22 -27 113 -2 133 15 12 16 12 10 -3 -4
-11 -2 -15 7 -12 8 3 11 15 8 30 -4 22 -27 31 -64 25 -7 -1 -12 23 -9 42 1 5
-3 6 -9 2 -5 -3 -11 -14 -11 -23 -1 -9 -5 1 -9 23 -6 35 -8 37 -15 18 -5 -16
-16 -23 -34 -24 -18 -1 -20 -3 -8 -6 14 -4 16 -8 6 -19 -8 -10 -8 -14 -1 -14
6 0 9 -7 6 -15 -4 -8 -1 -15 5 -15 6 0 11 -7 11 -15 0 -8 7 -15 15 -15 19 0
41 -115 24 -126 -5 -3 -9 -21 -9 -40 0 -28 -4 -34 -20 -34 -20 0 -20 0 1 -29
18 -24 19 -33 10 -66 -7 -25 -7 -43 -1 -50 7 -8 2 -15 -15 -23 -22 -10 -24
-15 -15 -31 12 -24 13 -81 0 -101 -8 -12 -10 -12 -16 3 -3 9 -10 14 -15 11 -5
-3 -9 18 -9 45 0 45 -2 51 -21 51 -12 0 -19 -5 -16 -12 2 -7 -1 -24 -8 -38
-14 -27 -3 -76 14 -65 13 8 25 -33 22 -77 -2 -32 1 -38 17 -38 12 0 29 -14 42
-35 18 -30 21 -44 15 -91 -4 -37 -2 -60 6 -70 6 -8 9 -17 6 -21 -4 -3 -2 -15
4 -26 8 -15 8 -18 -1 -12 -8 5 -10 2 -6 -11 7 -23 -8 -49 -22 -40 -6 3 -13 2
-16 -3 -4 -5 6 -15 21 -21 27 -12 28 -16 28 -80 0 -41 -5 -73 -13 -83 -15 -17
-8 -37 12 -37 7 0 23 -12 37 -27 56 -64 65 -120 24 -147 -33 -22 -51 -60 -58
-123 -3 -28 -12 -61 -19 -72 -15 -25 -53 -28 -66 -4 -9 15 -10 14 -16 -3 -4
-10 -18 -27 -32 -37 -20 -15 -28 -16 -40 -6 -8 7 -13 18 -10 24 3 9 -2 11 -15
8 -11 -3 -36 3 -55 13 -29 16 -35 24 -31 44 3 19 -3 32 -28 53 -30 25 -35 26
-49 11 -9 -8 -16 -24 -16 -35 0 -17 3 -18 21 -9 11 7 27 9 35 6 16 -6 19 -68
4 -96 -8 -15 -6 -24 10 -40 15 -15 20 -33 20 -72 0 -29 -4 -59 -8 -65 -10 -16
-50 11 -202 137 -152 126 -208 186 -324 353 -66 95 -66 94 -115 282 l-19 70 1
-57 c0 -37 3 -55 10 -51 6 4 8 0 4 -10 -4 -10 -2 -17 4 -17 7 0 9 -11 7 -25
-3 -14 -2 -28 2 -30 5 -3 11 -23 15 -45 4 -22 11 -42 16 -46 5 -3 9 -14 9 -25
0 -10 5 -19 10 -19 6 0 10 -7 10 -15 0 -33 173 -246 220 -270 29 -15 80 -76
80 -96 0 -7 3 -10 6 -6 5 5 27 -10 59 -40 8 -7 16 -13 20 -13 4 0 20 -14 37
-30 16 -17 34 -28 39 -24 5 3 12 -2 15 -10 3 -9 10 -16 16 -16 5 0 26 -14 47
-31 30 -24 44 -29 66 -23 28 7 182 105 200 128 6 7 42 40 80 73 144 123 310
324 377 457 l15 29 7 -41 c6 -42 -13 -89 -56 -138 -11 -12 -20 -28 -22 -36 -1
-8 -14 -26 -29 -40 -15 -14 -27 -29 -27 -33 0 -4 -17 -27 -37 -51 -21 -23 -51
-59 -68 -80 -16 -20 -41 -48 -55 -60 -14 -13 -20 -24 -14 -24 15 0 170 163
228 240 27 36 58 84 69 107 12 24 25 39 33 36 7 -2 23 11 36 30 l23 34 2 -128
c1 -88 -2 -131 -10 -137 -7 -5 -47 -12 -89 -14 -109 -7 -154 -41 -165 -127 -4
-31 -2 -42 10 -47 22 -8 158 15 177 31 31 26 50 26 62 0 6 -14 15 -25 19 -25
5 0 18 -17 29 -37 30 -56 103 -156 116 -160 7 -2 24 7 39 22 23 21 25 25 10
25 -10 0 -16 3 -12 6 3 4 0 13 -8 21 -8 8 -15 23 -15 33 0 10 -4 21 -9 25 -12
7 -61 113 -61 131 0 14 54 47 63 38 9 -10 47 20 47 38 0 22 -16 31 -54 31 -17
0 -23 2 -14 4 21 5 72 84 93 142 8 24 15 71 15 104 l0 61 28 -26 c29 -28 92
-68 105 -68 5 0 -1 17 -13 37 -13 22 -28 73 -35 124 -14 89 -25 118 -81 206
-18 28 -30 54 -27 57 4 3 1 6 -6 6 -7 0 -10 4 -6 9 3 6 -3 9 -12 9 -10 -1 -39
9 -64 21 -58 28 -99 96 -98 162 l0 44 16 -48 c18 -54 55 -99 76 -91 8 2 20 -2
27 -11 17 -21 30 -19 30 5 0 35 39 99 70 115 46 24 80 19 119 -17 33 -32 35
-31 14 20 -3 7 2 12 12 12 9 0 14 -3 12 -7 -3 -5 -1 -17 3 -28 7 -18 8 -19 15
-2 21 52 -43 110 -120 109 -84 -2 -153 -45 -186 -117 -16 -34 -19 -36 -19 -15
0 47 21 98 72 177 28 43 58 94 66 113 13 31 16 33 23 15 4 -11 8 -33 8 -50 1
-28 3 -27 32 25 16 30 49 84 71 120 23 36 43 66 44 68 5 9 108 -65 134 -96
l30 -37 0 55 c0 30 -7 79 -15 109 l-14 54 45 -49 45 -49 -5 75 c-2 41 -7 85
-11 98 -13 39 24 26 73 -25 43 -44 45 -45 38 -17 -4 16 -22 64 -41 106 -33 77
-33 77 -9 68 13 -5 30 -7 38 -4 18 7 37 50 30 69 -8 20 -24 19 -24 -1 0 -9 -7
-14 -17 -12 -15 3 -19 18 -23 93 -5 84 -8 93 -41 136 -30 39 -37 57 -42 113
-13 136 -79 194 -208 183 -38 -3 -69 -2 -69 3 0 4 -23 13 -51 19 -49 11 -53
10 -68 -11 -9 -13 -15 -27 -13 -32 2 -5 -18 -5 -45 -1 -26 5 -76 8 -110 9 -34
0 -60 3 -58 7 3 3 30 14 62 23 96 29 147 48 164 62 8 8 26 14 40 15 13 0 32 4
42 8 17 6 16 8 -9 20 -28 12 -28 13 -9 27 10 8 37 14 59 15 l41 1 -40 11 c-22
7 -51 20 -65 30 -26 18 -80 23 -80 7 0 -6 5 -9 11 -8 6 2 16 -5 22 -14 10 -15
5 -24 -29 -58 -38 -38 -94 -62 -94 -40 0 5 5 10 10 10 6 0 10 7 10 15 0 9 -6
12 -15 9 -9 -4 -15 -1 -15 7 0 7 -11 3 -27 -12 -18 -16 -22 -17 -13 -5 14 18
13 19 -5 12 -11 -5 -38 -10 -61 -11 -23 -1 -46 -5 -53 -9 -19 -12 -12 2 12 24
20 20 20 21 2 15 -19 -6 -19 -6 1 12 12 10 30 23 40 30 33 21 -36 16 -82 -6
-21 -10 -63 -22 -91 -26 -44 -5 -53 -4 -53 9 0 19 -11 21 -27 5 -19 -19 -58
-2 -85 37 -22 31 -24 39 -15 64 15 40 0 80 -40 105 -36 23 -87 101 -79 121 5
14 -11 16 -45 7z m-87 -50 c30 -27 21 -33 -44 -34 -78 0 -197 -13 -220 -24
-13 -5 -18 -3 -18 9 0 12 10 16 38 16 20 0 69 11 107 25 85 28 113 30 137 8z
m-7 -63 c3 -5 -1 -10 -10 -10 -9 0 -13 5 -10 10 3 6 8 10 10 10 2 0 7 -4 10
-10z m-247 -255 c-2 -37 1 -55 9 -55 6 0 11 15 10 34 0 19 5 41 12 50 14 17
87 23 77 7 -3 -5 0 -11 8 -14 9 -4 12 -14 9 -26 -4 -16 1 -21 31 -27 31 -5 36
-9 30 -26 -4 -14 -3 -18 6 -13 7 4 10 2 9 -6 -5 -21 20 -59 36 -59 8 0 15 -4
15 -10 0 -5 -6 -10 -14 -10 -8 0 -22 -3 -32 -7 -14 -5 -16 -3 -11 11 4 9 3 15
-2 12 -5 -3 -14 8 -21 24 -14 33 -18 33 -89 4 -18 -8 -44 -14 -57 -14 -12 0
-26 -5 -29 -10 -4 -6 -12 -10 -18 -9 -29 4 -37 -3 -36 -28 1 -22 3 -24 6 -7 3
16 9 20 24 17 10 -3 19 -13 19 -22 1 -12 6 -10 22 9 13 15 19 18 15 8 -6 -16
0 -17 58 -13 36 3 65 2 65 -2 0 -10 -32 -43 -42 -43 -4 0 -36 -13 -70 -29 -35
-16 -70 -31 -78 -34 -9 -3 -6 -6 8 -6 15 -1 22 -6 19 -13 -2 -7 2 -28 9 -47
17 -41 17 -41 -1 -41 -8 0 -15 -4 -15 -8 0 -5 14 -7 30 -4 19 3 30 0 30 -8 0
-7 10 -10 28 -7 15 2 21 2 15 0 -25 -8 -13 -25 12 -19 16 4 34 1 47 -8 11 -8
25 -13 32 -10 12 4 46 -48 46 -72 0 -8 5 -14 10 -14 6 0 10 -6 10 -14 0 -7
-26 -23 -59 -36 -77 -28 -168 -89 -221 -146 -23 -25 -43 -44 -43 -42 -1 2 -29
31 -61 65 -59 62 -59 62 -45 95 7 18 33 56 56 85 39 47 43 58 43 106 0 90 -19
163 -45 175 -27 12 -41 47 -27 65 6 7 13 35 17 62 10 71 15 85 31 85 8 0 14
10 14 23 0 12 3 32 6 45 6 19 11 22 35 17 18 -4 29 -2 29 4 0 6 7 11 16 11 13
0 15 -10 12 -55z m707 5 c-3 -5 -12 -10 -18 -10 -7 0 -6 4 3 10 19 12 23 12
15 0z m-140 -30 c3 -6 -1 -7 -9 -4 -18 7 -21 14 -7 14 6 0 13 -4 16 -10z
m-1410 -120 c0 -10 -12 -16 -37 -18 -40 -3 -50 10 -20 27 24 15 57 9 57 -9z
m175 -30 c12 -7 7 -12 -22 -25 -40 -16 -91 -19 -123 -5 -19 7 -19 8 -1 15 55
23 123 30 146 15z m1771 -30 c-15 -21 -34 -53 -41 -70 -7 -16 -18 -30 -24 -30
-20 0 -45 37 -39 59 4 16 1 21 -16 21 -11 0 -21 5 -21 10 0 11 30 8 64 -6 12
-5 17 -4 13 3 -4 6 11 16 34 23 22 8 42 17 45 22 3 4 7 8 10 8 2 0 -9 -18 -25
-40z m-896 -11 c10 -15 -1 -23 -20 -15 -9 3 -13 10 -10 16 8 13 22 13 30 -1z
m718 4 c-13 -2 -33 -2 -45 0 -13 2 -3 4 22 4 25 0 35 -2 23 -4z m-703 -58 c0
-21 -27 -30 -45 -15 -19 16 -10 30 21 30 15 0 24 -6 24 -15z m20 -50 c0 -16
-9 -19 -34 -9 -25 9 -19 24 9 24 16 0 25 -6 25 -15z m-128 -10 c0 -5 -5 -11
-11 -13 -6 -2 -11 4 -11 13 0 9 5 15 11 13 6 -2 11 -8 11 -13z m856 -15 c-2
-6 -8 -6 -18 0 -13 9 -13 11 0 20 15 10 25 0 18 -20z m-718 -30 c0 -4 -11 -7
-25 -7 -26 0 -35 22 -12 30 13 5 37 -10 37 -23z m974 14 c20 -19 20 -28 2 -43
-16 -14 -23 -6 -30 32 -5 30 5 35 28 11z m-888 -97 c62 -79 81 -111 64 -105
-16 5 -126 158 -113 157 4 0 26 -23 49 -52z m504 12 c0 -3 -11 -4 -25 -1 -24
4 -24 5 -8 17 17 13 32 5 33 -16z m-567 -21 c-9 -15 -23 -8 -23 12 0 17 2 19
14 8 8 -7 12 -16 9 -20z m587 -33 c7 -9 11 -18 8 -20 -6 -6 -58 18 -58 28 0
13 37 7 50 -8z m-555 -15 c-3 -5 -10 -10 -16 -10 -5 0 -9 5 -9 10 0 6 7 10 16
10 8 0 12 -4 9 -10z m-801 -119 c64 -20 61 -24 -26 -37 -26 -3 -46 -10 -43
-14 6 -10 40 -6 160 17 174 33 195 34 195 12 0 -5 0 -12 0 -15 0 -4 -21 -8
-47 -10 -62 -4 -85 -8 -101 -18 -7 -4 -16 -6 -18 -3 -3 3 -29 -1 -57 -9 -29
-8 -66 -14 -82 -14 -17 0 -47 -8 -67 -19 -25 -12 -40 -15 -47 -8 -11 11 -12
-12 -11 -208 1 -105 -3 -261 -8 -272 -2 -7 -8 -10 -13 -7 -5 3 -9 -2 -9 -10 0
-10 6 -13 15 -10 10 4 15 0 16 -12 5 -69 3 -84 -8 -84 -8 0 -13 13 -13 30 0
36 -24 73 -95 149 -42 45 -46 52 -25 46 41 -12 100 -45 100 -55 0 -6 3 -10 8
-10 4 0 6 39 5 87 -2 49 -3 111 -4 138 -1 38 -3 44 -8 25 -7 -23 -11 -19 -44
47 -38 75 -60 94 -127 108 -47 10 -64 24 -49 41 8 10 18 10 52 -2 73 -26 134
2 198 91 38 52 58 56 153 26z m1512 -158 c-12 -6 -39 -32 -60 -57 -21 -26 -42
-46 -47 -46 -10 0 -12 66 -3 131 l6 44 64 -30 c61 -28 63 -30 40 -42z m-1745
-162 c47 -46 50 -52 47 -93 l-3 -43 -18 55 c-14 46 -24 59 -62 83 -46 29 -57
47 -29 47 8 0 38 -22 65 -49z m967 31 c6 -18 -15 -14 -22 4 -4 10 -1 14 6 12
6 -2 14 -10 16 -16z m712 -85 c0 -5 -4 -5 -10 -2 -5 3 -10 14 -10 23 0 15 2
15 10 2 5 -8 10 -19 10 -23z m-9 -65 c-5 -10 -18 -25 -28 -33 -12 -10 -11 -5
6 19 24 35 38 43 22 14z m-20 -113 c-9 -22 -10 -22 -10 -3 -1 11 2 24 6 27 12
12 14 0 4 -24z m109 -54 c0 -9 -6 -12 -15 -9 -8 4 -12 10 -9 15 8 14 24 10 24
-6z m-1666 -140 c-4 -8 -10 -15 -15 -15 -5 0 -9 7 -9 15 0 8 7 15 15 15 9 0
12 -6 9 -15z m1413 -87 c-3 -8 -6 -5 -6 6 -1 11 2 17 5 13 3 -3 4 -12 1 -19z
m144 -79 c8 -16 7 -41 -6 -107 -18 -90 -43 -143 -32 -67 3 22 9 75 13 118 4
42 8 77 10 77 2 0 8 -9 15 -21z m149 -279 c6 -12 10 -35 8 -53 l-3 -32 -18 32
c-19 35 -23 73 -7 73 5 0 14 -9 20 -20z m-633 -38 c-26 -5 -47 5 -47 23 0 14
4 13 33 -2 25 -13 28 -18 14 -21z m-1267 -40 c0 -17 -32 -72 -41 -72 -12 0
-12 5 5 45 14 31 36 48 36 27z m96 -460 c-4 -3 -14 2 -24 12 -16 18 -16 18 6
6 13 -6 21 -14 18 -18z m199 -56 c50 -21 43 -26 -14 -11 -28 7 -53 10 -57 6
-4 -3 -4 0 0 7 9 16 29 15 71 -2z"/>
<path d="M1313 2487 c-7 -15 -19 -27 -28 -27 -18 0 -20 -17 -3 -22 8 -3 12
-20 11 -44 -3 -39 5 -32 21 19 3 11 16 21 28 25 18 4 19 7 5 16 -8 7 -17 23
-19 36 l-3 24 -12 -27z"/>
<path d="M765 2400 c-3 -6 1 -7 9 -4 18 7 21 14 7 14 -6 0 -13 -4 -16 -10z"/>
<path d="M710 2380 c-8 -5 -10 -10 -5 -10 6 0 17 5 25 10 8 5 11 10 5 10 -5 0
-17 -5 -25 -10z"/>
<path d="M692 2330 c0 -19 2 -27 5 -17 2 9 2 25 0 35 -3 9 -5 1 -5 -18z"/>
<path d="M692 2270 c0 -14 2 -19 5 -12 2 6 2 18 0 25 -3 6 -5 1 -5 -13z"/>
<path d="M690 2209 c0 -11 4 -18 10 -14 5 3 7 12 3 20 -7 21 -13 19 -13 -6z"/>
<path d="M1175 3200 c3 -5 11 -10 16 -10 6 0 7 5 4 10 -3 6 -11 10 -16 10 -6
0 -7 -4 -4 -10z"/>
<path d="M1215 3200 c3 -5 8 -10 11 -10 2 0 4 5 4 10 0 6 -5 10 -11 10 -5 0
-7 -4 -4 -10z"/>
<path d="M426 3166 c10 -8 21 -12 24 -10 5 6 -21 24 -34 24 -6 0 -1 -6 10 -14z"/>
<path d="M618 3163 c7 -3 16 -2 19 1 4 3 -2 6 -13 5 -11 0 -14 -3 -6 -6z"/>
<path d="M334 3058 c-44 -34 -57 -58 -31 -58 8 0 19 10 24 23 6 13 26 31 44
40 27 13 30 17 13 17 -12 0 -34 -10 -50 -22z"/>
<path d="M2377 2991 c-36 -17 -37 -19 -15 -24 14 -4 25 -1 31 8 4 8 17 15 27
15 11 0 20 5 20 10 0 14 -19 11 -63 -9z"/>
<path d="M2030 2051 c0 -6 8 -11 18 -11 9 0 28 -3 42 -6 18 -5 22 -4 15 4 -15
17 -75 27 -75 13z"/>
<path d="M1252 1828 c-7 -7 -12 -16 -12 -21 0 -5 7 -1 16 8 9 9 14 18 12 20
-2 3 -10 -1 -16 -7z"/>
<path d="M2202 1820 c0 -14 2 -19 5 -12 2 6 2 18 0 25 -3 6 -5 1 -5 -13z"/>
<path d="M2680 1616 c0 -18 -36 -83 -64 -114 -29 -33 -66 -50 -98 -47 -16 2
-29 -2 -32 -11 -3 -7 -2 -13 2 -12 4 1 15 -2 25 -7 35 -15 90 5 134 50 40 40
43 46 43 99 0 31 -2 56 -5 56 -3 0 -5 -6 -5 -14z"/>
<path d="M711 1471 c-1 -36 2 -52 9 -45 6 6 6 26 1 54 l-9 45 -1 -54z"/>
<path d="M1388 1384 c-32 -17 -34 -28 -13 -77 10 -25 12 -38 4 -43 -6 -3 -8
-15 -6 -26 5 -19 -21 -74 -51 -110 -14 -17 -12 -18 25 -18 54 0 64 -24 26 -62
-31 -30 -18 -32 -123 17 -23 10 -28 9 -43 -11 -15 -20 -15 -23 -1 -28 9 -3 33
-6 54 -6 40 0 70 -20 70 -46 0 -18 3 -18 52 6 50 24 72 26 64 5 -3 -9 -3 -36
1 -60 5 -38 9 -45 29 -45 20 0 78 -39 96 -65 7 -10 8 -10 24 20 6 11 20 24 32
30 12 5 22 13 22 18 0 4 9 21 21 36 29 40 14 64 -58 91 -100 37 -131 83 -112
167 12 56 13 83 4 138 -14 88 -12 85 -53 85 -20 -1 -49 -8 -64 -16z"/>
<path d="M987 1323 c-13 -12 -7 -23 12 -23 10 0 24 7 31 15 10 13 9 15 -12 15
-14 0 -28 -3 -31 -7z"/>
<path d="M932 1175 c-15 -32 -15 -58 -2 -50 6 4 8 10 5 15 -3 4 -2 15 1 24 5
12 10 14 19 6 11 -9 12 -7 8 9 -7 28 -17 26 -31 -4z"/>
<path d="M1035 1160 c3 -5 8 -10 11 -10 2 0 4 5 4 10 0 6 -5 10 -11 10 -5 0
-7 -4 -4 -10z"/>
<path d="M980 1130 c14 -26 56 -54 70 -45 16 10 12 25 -8 25 -11 0 -27 9 -37
20 -23 26 -39 26 -25 0z"/>
<path d="M1050 1032 c0 -5 7 -13 16 -16 10 -4 14 -1 12 6 -5 15 -28 23 -28 10z"/>
<path d="M1055 980 c3 -5 8 -10 11 -10 2 0 4 5 4 10 0 6 -5 10 -11 10 -5 0 -7
-4 -4 -10z"/>
<path d="M1765 564 c-64 -59 -131 -105 -139 -97 -3 4 -6 2 -6 -4 0 -6 -11 -14
-25 -17 -14 -4 -25 -11 -25 -16 0 -5 -7 -6 -17 -3 -11 4 -14 3 -9 -5 4 -7 1
-12 -7 -12 -8 0 -20 -6 -26 -14 -6 -7 -25 -16 -42 -20 -33 -6 -31 -26 3 -26
41 0 393 258 353 259 -5 1 -32 -20 -60 -45z"/>
<path d="M715 437 c-45 -45 -61 -106 -40 -147 17 -32 55 -53 79 -44 7 3 19 16
26 30 8 13 20 23 28 22 26 -5 24 20 -2 37 -24 16 -58 15 -55 -2 6 -33 -23 -47
-35 -17 -13 34 -5 63 25 89 35 29 53 28 57 -2 5 -34 30 -36 47 -3 20 38 20 37
-15 55 -46 24 -78 19 -115 -18z"/>
<path d="M1320 442 c0 -4 13 -16 30 -25 26 -16 29 -16 24 -2 -9 23 -54 46 -54
27z"/>
<path d="M2098 409 c-40 -21 -48 -36 -23 -46 21 -7 76 -118 69 -136 -9 -24 13
-29 45 -12 20 10 28 20 24 31 -3 8 -8 12 -11 9 -3 -2 -12 4 -20 16 -20 29 -6
37 29 16 36 -20 60 -22 77 -5 18 18 15 30 -5 24 -29 -9 -75 25 -79 58 -3 33
-30 66 -53 66 -9 -1 -33 -10 -53 -21z m58 -34 c8 -21 -6 -41 -17 -24 -12 19
-11 39 1 39 6 0 13 -7 16 -15z"/>
<path d="M879 388 c-1 -7 -1 -19 0 -26 4 -25 -51 -130 -70 -135 -30 -8 -22
-23 19 -40 42 -17 55 -13 47 13 -7 23 12 63 26 55 5 -4 9 -23 9 -44 0 -40 14
-64 44 -75 15 -5 17 -3 11 16 -3 13 -10 41 -15 62 -7 35 -5 42 16 59 28 22 32
68 7 92 -31 31 -92 46 -94 23z m71 -69 c0 -12 -7 -19 -20 -19 -23 0 -24 4 -9
31 12 23 29 16 29 -12z"/>
<path d="M2322 360 c-26 -22 -30 -29 -18 -33 10 -4 16 -1 16 9 0 8 3 13 8 11
9 -5 43 31 34 37 -4 2 -22 -8 -40 -24z"/>
<path d="M1983 353 c-15 -8 -31 -20 -35 -26 -13 -20 -9 -96 7 -126 16 -33 75
-64 102 -55 28 10 63 46 63 63 0 59 -49 143 -89 154 -11 3 -32 -2 -48 -10z
m66 -59 c49 -62 4 -137 -49 -84 -34 34 -22 110 16 110 7 0 22 -12 33 -26z"/>
<path d="M1003 334 c-3 -9 -1 -19 4 -23 12 -7 33 -76 33 -108 0 -13 -9 -32
-20 -43 -11 -11 -20 -26 -20 -34 0 -14 56 -33 67 -22 3 3 7 27 8 53 1 41 7 51
40 79 20 18 42 32 48 31 7 -1 13 8 15 21 3 16 -2 22 -16 22 -11 0 -26 2 -34 5
-7 3 -18 -4 -23 -17 -15 -34 -35 -34 -35 0 0 21 -7 32 -25 40 -33 15 -34 15
-42 -4z"/>
<path d="M1538 343 c6 -2 18 -2 25 0 6 3 1 5 -13 5 -14 0 -19 -2 -12 -5z"/>
<path d="M1788 303 c-31 -5 -35 -18 -13 -43 11 -12 16 -42 18 -100 l1 -82 33
5 c81 14 113 56 99 131 -13 69 -64 101 -138 89z m70 -41 c16 -11 27 -73 18
-106 -11 -44 -34 -31 -41 22 -3 26 -8 57 -11 70 -5 23 10 29 34 14z"/>
<path d="M1199 298 c0 -2 -2 -40 -3 -85 -1 -61 -6 -87 -19 -101 -24 -26 -22
-29 19 -37 43 -8 64 6 45 29 -8 9 -10 27 -6 46 8 34 13 37 30 13 17 -22 35 -8
35 28 0 29 -2 30 -30 24 -26 -6 -30 -4 -30 14 0 23 28 29 48 9 14 -14 17 -11
26 19 8 24 6 25 -76 38 -21 3 -38 5 -39 3z"/>
<path d="M1694 263 c4 -16 9 -41 12 -58 l5 -30 -21 25 c-11 14 -23 37 -26 53
-6 24 -11 27 -45 27 -32 0 -39 -3 -39 -20 0 -11 5 -20 10 -20 13 0 13 -147 0
-155 -13 -8 -1 -35 15 -35 8 0 26 5 41 10 24 10 25 12 12 28 -9 9 -18 42 -21
72 l-4 54 24 -29 c13 -17 36 -49 51 -72 27 -43 69 -61 58 -25 -8 28 -21 155
-18 180 2 19 -2 22 -29 22 -29 0 -31 -2 -25 -27z"/>
<path d="M1337 198 c5 -70 3 -87 -11 -100 -21 -22 -20 -38 2 -38 9 0 27 -3 40
-6 17 -5 22 -2 22 14 0 12 -4 23 -8 26 -11 6 -3 64 9 72 5 3 9 -2 9 -10 0 -9
9 -16 20 -16 16 0 20 7 20 34 0 34 -20 61 -28 38 -5 -15 -32 -3 -32 14 0 16
46 19 55 4 12 -20 35 -10 35 15 0 23 -4 25 -47 25 -27 0 -58 3 -70 6 -22 6
-22 5 -16 -78z"/>
<path d="M1485 271 c-3 -5 2 -16 10 -24 17 -18 22 -152 5 -162 -5 -3 -10 -13
-10 -21 0 -10 12 -14 40 -14 33 0 40 3 40 20 0 11 -4 20 -10 20 -6 0 -10 32
-10 75 0 43 4 75 10 75 6 0 10 9 10 20 0 17 -7 20 -39 20 -22 0 -42 -4 -46 -9z"/>
</g>
</svg>
